<mxfile modified="2021-12-10T15:44:56.905Z" host="app.diagrams.net" agent="5.0 (Macintosh; Intel Mac OS X 10_15_7) AppleWebKit/537.36 (KHTML, like Gecko) Chrome/96.0.4664.45 Safari/537.36" etag="2taXwPKiGNrANtOPci8v" version="15.9.4" type="github">
  <diagram id="WI9T0HZ2pTsCkuznbFz-" name="Page-1">
    <mxGraphModel dx="988" dy="1389" grid="1" gridSize="10" guides="1" tooltips="1" connect="1" arrows="1" fold="1" page="1" pageScale="1" pageWidth="1169" pageHeight="827" math="0" shadow="0">
      <root>
        <mxCell id="0" />
        <mxCell id="1" parent="0" />
        <mxCell id="73gjUbMc13ic_WcBG1Tp-119" value="Events channel" style="rounded=0;whiteSpace=wrap;html=1;fillColor=#f5f5f5;strokeColor=none;fontColor=#333333;verticalAlign=top;" vertex="1" parent="1">
          <mxGeometry x="532.75" y="-19.25" width="241.5" height="176.5" as="geometry" />
        </mxCell>
        <mxCell id="73gjUbMc13ic_WcBG1Tp-116" value="edgeAppN" style="sketch=0;outlineConnect=0;fontColor=#232F3E;gradientColor=none;fillColor=#3F8624;strokeColor=none;dashed=0;verticalLabelPosition=bottom;verticalAlign=top;align=center;html=1;fontSize=12;fontStyle=0;aspect=fixed;pointerEvents=1;shape=mxgraph.aws4.topic_2;" vertex="1" parent="1">
          <mxGeometry x="640" y="20" width="53" height="78" as="geometry" />
        </mxCell>
        <mxCell id="73gjUbMc13ic_WcBG1Tp-117" value="edgeAppN" style="sketch=0;outlineConnect=0;fontColor=#232F3E;gradientColor=none;fillColor=#3F8624;strokeColor=none;dashed=0;verticalLabelPosition=bottom;verticalAlign=top;align=center;html=1;fontSize=12;fontStyle=0;aspect=fixed;pointerEvents=1;shape=mxgraph.aws4.topic_2;" vertex="1" parent="1">
          <mxGeometry x="707" width="53" height="78" as="geometry" />
        </mxCell>
        <mxCell id="73gjUbMc13ic_WcBG1Tp-104" style="edgeStyle=none;rounded=1;orthogonalLoop=1;jettySize=auto;html=1;startArrow=none;startFill=0;" edge="1" parent="1" target="73gjUbMc13ic_WcBG1Tp-102">
          <mxGeometry relative="1" as="geometry">
            <mxPoint x="520" y="386" as="sourcePoint" />
          </mxGeometry>
        </mxCell>
        <mxCell id="73gjUbMc13ic_WcBG1Tp-96" value="Events channel" style="rounded=0;whiteSpace=wrap;html=1;fillColor=#f5f5f5;strokeColor=none;fontColor=#333333;verticalAlign=top;" vertex="1" parent="1">
          <mxGeometry x="285" y="310" width="230" height="151" as="geometry" />
        </mxCell>
        <mxCell id="73gjUbMc13ic_WcBG1Tp-95" value="Subscription channel" style="rounded=0;whiteSpace=wrap;html=1;fillColor=#f5f5f5;strokeColor=none;fontColor=#333333;verticalAlign=top;" vertex="1" parent="1">
          <mxGeometry x="25" y="310" width="230" height="151" as="geometry" />
        </mxCell>
        <mxCell id="AcxdMaKK0mU5kZiv2lnr-5" value="Preview&lt;br&gt;Monitoring&lt;br&gt;" style="aspect=fixed;html=1;perimeter=none;align=center;shadow=0;dashed=0;image;fontSize=12;image=img/lib/mscae/TaskVM.svg;" parent="1" vertex="1">
          <mxGeometry x="670" y="660" width="63" height="60" as="geometry" />
        </mxCell>
        <mxCell id="73gjUbMc13ic_WcBG1Tp-90" style="edgeStyle=none;rounded=1;orthogonalLoop=1;jettySize=auto;html=1;entryX=1;entryY=0;entryDx=0;entryDy=0;startArrow=block;startFill=1;" edge="1" parent="1" source="73gjUbMc13ic_WcBG1Tp-8" target="73gjUbMc13ic_WcBG1Tp-86">
          <mxGeometry relative="1" as="geometry" />
        </mxCell>
        <mxCell id="73gjUbMc13ic_WcBG1Tp-8" value="Database" style="image;html=1;image=img/lib/clip_art/computers/Database_128x128.png" vertex="1" parent="1">
          <mxGeometry x="680" y="-240" width="80" height="80" as="geometry" />
        </mxCell>
        <mxCell id="73gjUbMc13ic_WcBG1Tp-45" value="" style="group" vertex="1" connectable="0" parent="1">
          <mxGeometry x="70" y="-80" width="400" height="338.75" as="geometry" />
        </mxCell>
        <mxCell id="73gjUbMc13ic_WcBG1Tp-76" value="" style="group" vertex="1" connectable="0" parent="73gjUbMc13ic_WcBG1Tp-45">
          <mxGeometry x="40" y="-61.25" width="360" height="400" as="geometry" />
        </mxCell>
        <mxCell id="73gjUbMc13ic_WcBG1Tp-86" value="Channel" style="rounded=0;whiteSpace=wrap;html=1;fillColor=#f5f5f5;strokeColor=none;fontColor=#333333;verticalAlign=top;" vertex="1" parent="73gjUbMc13ic_WcBG1Tp-76">
          <mxGeometry x="-77.75" y="-58.75" width="437.75" height="458.75" as="geometry" />
        </mxCell>
        <mxCell id="73gjUbMc13ic_WcBG1Tp-77" value="Single EdgeApp region" style="rounded=0;whiteSpace=wrap;html=1;fillColor=#eeeeee;strokeColor=#36393d;verticalAlign=top;" vertex="1" parent="73gjUbMc13ic_WcBG1Tp-76">
          <mxGeometry width="300" height="297.5" as="geometry" />
        </mxCell>
        <mxCell id="73gjUbMc13ic_WcBG1Tp-78" value="EdgeApp" style="aspect=fixed;html=1;perimeter=none;align=center;shadow=0;dashed=0;image;fontSize=12;image=img/lib/mscae/WebApp_WebJobs.svg;labelBackgroundColor=none;" vertex="1" parent="73gjUbMc13ic_WcBG1Tp-76">
          <mxGeometry x="118" y="187.50000000000006" width="64" height="64" as="geometry" />
        </mxCell>
        <mxCell id="73gjUbMc13ic_WcBG1Tp-79" style="edgeStyle=none;rounded=1;orthogonalLoop=1;jettySize=auto;html=1;exitX=0;exitY=0;exitDx=0;exitDy=0;startArrow=block;startFill=1;" edge="1" parent="73gjUbMc13ic_WcBG1Tp-76" source="73gjUbMc13ic_WcBG1Tp-78" target="73gjUbMc13ic_WcBG1Tp-78">
          <mxGeometry relative="1" as="geometry" />
        </mxCell>
        <mxCell id="73gjUbMc13ic_WcBG1Tp-80" value="Client apps" style="rounded=0;whiteSpace=wrap;html=1;fillColor=#dae8fc;strokeColor=#6c8ebf;verticalAlign=top;" vertex="1" parent="73gjUbMc13ic_WcBG1Tp-76">
          <mxGeometry x="20" y="37.5" width="260" height="100" as="geometry" />
        </mxCell>
        <mxCell id="73gjUbMc13ic_WcBG1Tp-81" style="edgeStyle=none;rounded=1;orthogonalLoop=1;jettySize=auto;html=1;entryX=0.5;entryY=0.012;entryDx=0;entryDy=0;entryPerimeter=0;startArrow=block;startFill=1;" edge="1" parent="73gjUbMc13ic_WcBG1Tp-76" source="73gjUbMc13ic_WcBG1Tp-80" target="73gjUbMc13ic_WcBG1Tp-78">
          <mxGeometry relative="1" as="geometry" />
        </mxCell>
        <mxCell id="73gjUbMc13ic_WcBG1Tp-82" value="" style="aspect=fixed;html=1;perimeter=none;align=center;shadow=0;dashed=0;image;fontSize=12;image=img/lib/mscae/WebApp_WebJobs.svg;labelBackgroundColor=none;" vertex="1" parent="73gjUbMc13ic_WcBG1Tp-76">
          <mxGeometry x="30" y="72.5" width="50" height="50" as="geometry" />
        </mxCell>
        <mxCell id="73gjUbMc13ic_WcBG1Tp-83" value="" style="aspect=fixed;html=1;perimeter=none;align=center;shadow=0;dashed=0;image;fontSize=12;image=img/lib/mscae/WebApp_WebJobs.svg;labelBackgroundColor=none;" vertex="1" parent="73gjUbMc13ic_WcBG1Tp-76">
          <mxGeometry x="90" y="72.5" width="50" height="50" as="geometry" />
        </mxCell>
        <mxCell id="73gjUbMc13ic_WcBG1Tp-84" value="" style="aspect=fixed;html=1;perimeter=none;align=center;shadow=0;dashed=0;image;fontSize=12;image=img/lib/mscae/WebApp_WebJobs.svg;labelBackgroundColor=none;" vertex="1" parent="73gjUbMc13ic_WcBG1Tp-76">
          <mxGeometry x="152.25" y="72.5" width="50" height="50" as="geometry" />
        </mxCell>
        <mxCell id="73gjUbMc13ic_WcBG1Tp-85" value="" style="aspect=fixed;html=1;perimeter=none;align=center;shadow=0;dashed=0;image;fontSize=12;image=img/lib/mscae/WebApp_WebJobs.svg;labelBackgroundColor=none;" vertex="1" parent="73gjUbMc13ic_WcBG1Tp-76">
          <mxGeometry x="216.25" y="72.5" width="50" height="50" as="geometry" />
        </mxCell>
        <mxCell id="73gjUbMc13ic_WcBG1Tp-66" value="" style="group" vertex="1" connectable="0" parent="73gjUbMc13ic_WcBG1Tp-45">
          <mxGeometry x="20" y="-30" width="300" height="297.5" as="geometry" />
        </mxCell>
        <mxCell id="73gjUbMc13ic_WcBG1Tp-67" value="Single EdgeApp region" style="rounded=0;whiteSpace=wrap;html=1;fillColor=#eeeeee;strokeColor=#36393d;verticalAlign=top;" vertex="1" parent="73gjUbMc13ic_WcBG1Tp-66">
          <mxGeometry width="300" height="297.5" as="geometry" />
        </mxCell>
        <mxCell id="73gjUbMc13ic_WcBG1Tp-68" value="EdgeApp" style="aspect=fixed;html=1;perimeter=none;align=center;shadow=0;dashed=0;image;fontSize=12;image=img/lib/mscae/WebApp_WebJobs.svg;labelBackgroundColor=none;" vertex="1" parent="73gjUbMc13ic_WcBG1Tp-66">
          <mxGeometry x="118" y="187.50000000000006" width="64" height="64" as="geometry" />
        </mxCell>
        <mxCell id="73gjUbMc13ic_WcBG1Tp-69" style="edgeStyle=none;rounded=1;orthogonalLoop=1;jettySize=auto;html=1;exitX=0;exitY=0;exitDx=0;exitDy=0;startArrow=block;startFill=1;" edge="1" parent="73gjUbMc13ic_WcBG1Tp-66" source="73gjUbMc13ic_WcBG1Tp-68" target="73gjUbMc13ic_WcBG1Tp-68">
          <mxGeometry relative="1" as="geometry" />
        </mxCell>
        <mxCell id="73gjUbMc13ic_WcBG1Tp-70" value="Client apps" style="rounded=0;whiteSpace=wrap;html=1;fillColor=#dae8fc;strokeColor=#6c8ebf;verticalAlign=top;" vertex="1" parent="73gjUbMc13ic_WcBG1Tp-66">
          <mxGeometry x="20" y="37.5" width="260" height="100" as="geometry" />
        </mxCell>
        <mxCell id="73gjUbMc13ic_WcBG1Tp-71" style="edgeStyle=none;rounded=1;orthogonalLoop=1;jettySize=auto;html=1;entryX=0.5;entryY=0.012;entryDx=0;entryDy=0;entryPerimeter=0;startArrow=block;startFill=1;" edge="1" parent="73gjUbMc13ic_WcBG1Tp-66" source="73gjUbMc13ic_WcBG1Tp-70" target="73gjUbMc13ic_WcBG1Tp-68">
          <mxGeometry relative="1" as="geometry" />
        </mxCell>
        <mxCell id="73gjUbMc13ic_WcBG1Tp-72" value="" style="aspect=fixed;html=1;perimeter=none;align=center;shadow=0;dashed=0;image;fontSize=12;image=img/lib/mscae/WebApp_WebJobs.svg;labelBackgroundColor=none;" vertex="1" parent="73gjUbMc13ic_WcBG1Tp-66">
          <mxGeometry x="30" y="72.5" width="50" height="50" as="geometry" />
        </mxCell>
        <mxCell id="73gjUbMc13ic_WcBG1Tp-73" value="" style="aspect=fixed;html=1;perimeter=none;align=center;shadow=0;dashed=0;image;fontSize=12;image=img/lib/mscae/WebApp_WebJobs.svg;labelBackgroundColor=none;" vertex="1" parent="73gjUbMc13ic_WcBG1Tp-66">
          <mxGeometry x="90" y="72.5" width="50" height="50" as="geometry" />
        </mxCell>
        <mxCell id="73gjUbMc13ic_WcBG1Tp-74" value="" style="aspect=fixed;html=1;perimeter=none;align=center;shadow=0;dashed=0;image;fontSize=12;image=img/lib/mscae/WebApp_WebJobs.svg;labelBackgroundColor=none;" vertex="1" parent="73gjUbMc13ic_WcBG1Tp-66">
          <mxGeometry x="152.25" y="72.5" width="50" height="50" as="geometry" />
        </mxCell>
        <mxCell id="73gjUbMc13ic_WcBG1Tp-75" value="" style="aspect=fixed;html=1;perimeter=none;align=center;shadow=0;dashed=0;image;fontSize=12;image=img/lib/mscae/WebApp_WebJobs.svg;labelBackgroundColor=none;" vertex="1" parent="73gjUbMc13ic_WcBG1Tp-66">
          <mxGeometry x="216.25" y="72.5" width="50" height="50" as="geometry" />
        </mxCell>
        <mxCell id="73gjUbMc13ic_WcBG1Tp-43" value="Single EdgeApp region" style="rounded=0;whiteSpace=wrap;html=1;fillColor=#eeeeee;strokeColor=#36393d;verticalAlign=top;" vertex="1" parent="73gjUbMc13ic_WcBG1Tp-45">
          <mxGeometry width="300" height="297.5" as="geometry" />
        </mxCell>
        <mxCell id="73gjUbMc13ic_WcBG1Tp-1" value="EdgeApp" style="aspect=fixed;html=1;perimeter=none;align=center;shadow=0;dashed=0;image;fontSize=12;image=img/lib/mscae/WebApp_WebJobs.svg;labelBackgroundColor=none;" vertex="1" parent="73gjUbMc13ic_WcBG1Tp-45">
          <mxGeometry x="118" y="187.50000000000006" width="64" height="64" as="geometry" />
        </mxCell>
        <mxCell id="73gjUbMc13ic_WcBG1Tp-37" style="edgeStyle=none;rounded=1;orthogonalLoop=1;jettySize=auto;html=1;exitX=0;exitY=0;exitDx=0;exitDy=0;startArrow=block;startFill=1;" edge="1" parent="73gjUbMc13ic_WcBG1Tp-45" source="73gjUbMc13ic_WcBG1Tp-1" target="73gjUbMc13ic_WcBG1Tp-1">
          <mxGeometry relative="1" as="geometry" />
        </mxCell>
        <mxCell id="73gjUbMc13ic_WcBG1Tp-11" value="Client apps" style="rounded=0;whiteSpace=wrap;html=1;fillColor=#dae8fc;strokeColor=#6c8ebf;verticalAlign=top;" vertex="1" parent="73gjUbMc13ic_WcBG1Tp-45">
          <mxGeometry x="20" y="37.5" width="260" height="100" as="geometry" />
        </mxCell>
        <mxCell id="73gjUbMc13ic_WcBG1Tp-41" style="edgeStyle=none;rounded=1;orthogonalLoop=1;jettySize=auto;html=1;entryX=0.5;entryY=0.012;entryDx=0;entryDy=0;entryPerimeter=0;startArrow=block;startFill=1;" edge="1" parent="73gjUbMc13ic_WcBG1Tp-45" source="73gjUbMc13ic_WcBG1Tp-11" target="73gjUbMc13ic_WcBG1Tp-1">
          <mxGeometry relative="1" as="geometry" />
        </mxCell>
        <mxCell id="73gjUbMc13ic_WcBG1Tp-115" value="RxJava" style="edgeLabel;html=1;align=center;verticalAlign=middle;resizable=0;points=[];" vertex="1" connectable="0" parent="73gjUbMc13ic_WcBG1Tp-41">
          <mxGeometry x="-0.2712" y="2" relative="1" as="geometry">
            <mxPoint y="1" as="offset" />
          </mxGeometry>
        </mxCell>
        <mxCell id="73gjUbMc13ic_WcBG1Tp-4" value="" style="aspect=fixed;html=1;perimeter=none;align=center;shadow=0;dashed=0;image;fontSize=12;image=img/lib/mscae/WebApp_WebJobs.svg;labelBackgroundColor=none;" vertex="1" parent="73gjUbMc13ic_WcBG1Tp-45">
          <mxGeometry x="30" y="72.5" width="50" height="50" as="geometry" />
        </mxCell>
        <mxCell id="73gjUbMc13ic_WcBG1Tp-15" value="" style="aspect=fixed;html=1;perimeter=none;align=center;shadow=0;dashed=0;image;fontSize=12;image=img/lib/mscae/WebApp_WebJobs.svg;labelBackgroundColor=none;" vertex="1" parent="73gjUbMc13ic_WcBG1Tp-45">
          <mxGeometry x="90" y="72.5" width="50" height="50" as="geometry" />
        </mxCell>
        <mxCell id="73gjUbMc13ic_WcBG1Tp-16" value="" style="aspect=fixed;html=1;perimeter=none;align=center;shadow=0;dashed=0;image;fontSize=12;image=img/lib/mscae/WebApp_WebJobs.svg;labelBackgroundColor=none;" vertex="1" parent="73gjUbMc13ic_WcBG1Tp-45">
          <mxGeometry x="152.25" y="72.5" width="50" height="50" as="geometry" />
        </mxCell>
        <mxCell id="73gjUbMc13ic_WcBG1Tp-17" value="" style="aspect=fixed;html=1;perimeter=none;align=center;shadow=0;dashed=0;image;fontSize=12;image=img/lib/mscae/WebApp_WebJobs.svg;labelBackgroundColor=none;" vertex="1" parent="73gjUbMc13ic_WcBG1Tp-45">
          <mxGeometry x="216.25" y="72.5" width="50" height="50" as="geometry" />
        </mxCell>
        <mxCell id="73gjUbMc13ic_WcBG1Tp-91" value="subscription" style="sketch=0;outlineConnect=0;fontColor=#232F3E;gradientColor=none;fillColor=#3F8624;strokeColor=none;dashed=0;verticalLabelPosition=bottom;verticalAlign=top;align=center;html=1;fontSize=12;fontStyle=0;aspect=fixed;pointerEvents=1;shape=mxgraph.aws4.topic_2;" vertex="1" parent="1">
          <mxGeometry x="65" y="340" width="53" height="78" as="geometry" />
        </mxCell>
        <mxCell id="73gjUbMc13ic_WcBG1Tp-92" value="subscription result&lt;br&gt;" style="sketch=1;outlineConnect=0;fontColor=#232F3E;gradientColor=none;fillColor=#3F8624;strokeColor=none;dashed=0;verticalLabelPosition=bottom;verticalAlign=top;align=center;html=1;fontSize=12;fontStyle=0;aspect=fixed;pointerEvents=1;shape=mxgraph.aws4.topic_2;shadow=0;" vertex="1" parent="1">
          <mxGeometry x="165" y="340" width="53" height="78" as="geometry" />
        </mxCell>
        <mxCell id="73gjUbMc13ic_WcBG1Tp-93" value="events" style="sketch=0;outlineConnect=0;fontColor=#232F3E;gradientColor=none;fillColor=#3F8624;strokeColor=none;dashed=0;verticalLabelPosition=bottom;verticalAlign=top;align=center;html=1;fontSize=12;fontStyle=0;aspect=fixed;pointerEvents=1;shape=mxgraph.aws4.topic_2;" vertex="1" parent="1">
          <mxGeometry x="315" y="340" width="53" height="78" as="geometry" />
        </mxCell>
        <mxCell id="73gjUbMc13ic_WcBG1Tp-94" value="events_result" style="sketch=1;outlineConnect=0;fontColor=#232F3E;gradientColor=none;fillColor=#3F8624;strokeColor=none;dashed=0;verticalLabelPosition=bottom;verticalAlign=top;align=center;html=1;fontSize=12;fontStyle=0;aspect=fixed;pointerEvents=1;shape=mxgraph.aws4.topic_2;" vertex="1" parent="1">
          <mxGeometry x="415" y="340" width="53" height="78" as="geometry" />
        </mxCell>
        <mxCell id="73gjUbMc13ic_WcBG1Tp-105" style="edgeStyle=none;rounded=1;orthogonalLoop=1;jettySize=auto;html=1;startArrow=block;startFill=1;" edge="1" parent="1" source="73gjUbMc13ic_WcBG1Tp-100" target="73gjUbMc13ic_WcBG1Tp-95">
          <mxGeometry relative="1" as="geometry" />
        </mxCell>
        <mxCell id="73gjUbMc13ic_WcBG1Tp-106" style="edgeStyle=none;rounded=1;orthogonalLoop=1;jettySize=auto;html=1;startArrow=block;startFill=1;" edge="1" parent="1" source="73gjUbMc13ic_WcBG1Tp-100" target="73gjUbMc13ic_WcBG1Tp-103">
          <mxGeometry relative="1" as="geometry" />
        </mxCell>
        <mxCell id="73gjUbMc13ic_WcBG1Tp-100" value="Subscription Pipeline" style="sketch=0;pointerEvents=1;shadow=0;dashed=0;html=1;strokeColor=none;fillColor=#434445;aspect=fixed;labelPosition=center;verticalLabelPosition=bottom;verticalAlign=top;align=center;outlineConnect=0;shape=mxgraph.vvd.cpu;" vertex="1" parent="1">
          <mxGeometry x="115" y="550" width="50" height="50" as="geometry" />
        </mxCell>
        <mxCell id="73gjUbMc13ic_WcBG1Tp-107" style="edgeStyle=none;rounded=1;orthogonalLoop=1;jettySize=auto;html=1;startArrow=block;startFill=1;" edge="1" parent="1" source="73gjUbMc13ic_WcBG1Tp-102" target="73gjUbMc13ic_WcBG1Tp-103">
          <mxGeometry relative="1" as="geometry">
            <Array as="points">
              <mxPoint x="675" y="575" />
            </Array>
          </mxGeometry>
        </mxCell>
        <mxCell id="73gjUbMc13ic_WcBG1Tp-113" style="edgeStyle=none;rounded=1;orthogonalLoop=1;jettySize=auto;html=1;startArrow=none;startFill=0;entryX=0.5;entryY=1;entryDx=0;entryDy=0;" edge="1" parent="1" source="73gjUbMc13ic_WcBG1Tp-102" target="73gjUbMc13ic_WcBG1Tp-119">
          <mxGeometry relative="1" as="geometry" />
        </mxCell>
        <mxCell id="73gjUbMc13ic_WcBG1Tp-114" value="topic per EdgeApp" style="edgeLabel;html=1;align=center;verticalAlign=middle;resizable=0;points=[];" vertex="1" connectable="0" parent="73gjUbMc13ic_WcBG1Tp-113">
          <mxGeometry x="-0.0167" y="-1" relative="1" as="geometry">
            <mxPoint as="offset" />
          </mxGeometry>
        </mxCell>
        <mxCell id="73gjUbMc13ic_WcBG1Tp-102" value="events Pipeline" style="sketch=0;pointerEvents=1;shadow=0;dashed=0;html=1;strokeColor=none;fillColor=#434445;aspect=fixed;labelPosition=center;verticalLabelPosition=bottom;verticalAlign=top;align=center;outlineConnect=0;shape=mxgraph.vvd.cpu;" vertex="1" parent="1">
          <mxGeometry x="650" y="360.5" width="50" height="50" as="geometry" />
        </mxCell>
        <mxCell id="73gjUbMc13ic_WcBG1Tp-103" value="Database" style="image;html=1;image=img/lib/clip_art/computers/Database_128x128.png" vertex="1" parent="1">
          <mxGeometry x="460" y="535" width="80" height="80" as="geometry" />
        </mxCell>
        <mxCell id="73gjUbMc13ic_WcBG1Tp-110" style="edgeStyle=none;rounded=1;orthogonalLoop=1;jettySize=auto;html=1;exitX=0.5;exitY=0;exitDx=0;exitDy=0;startArrow=block;startFill=1;" edge="1" parent="1" source="73gjUbMc13ic_WcBG1Tp-95" target="73gjUbMc13ic_WcBG1Tp-95">
          <mxGeometry relative="1" as="geometry" />
        </mxCell>
        <mxCell id="73gjUbMc13ic_WcBG1Tp-97" style="edgeStyle=none;rounded=1;orthogonalLoop=1;jettySize=auto;html=1;entryX=0.25;entryY=1;entryDx=0;entryDy=0;startArrow=block;startFill=1;" edge="1" parent="1" source="73gjUbMc13ic_WcBG1Tp-91" target="73gjUbMc13ic_WcBG1Tp-86">
          <mxGeometry relative="1" as="geometry" />
        </mxCell>
        <mxCell id="73gjUbMc13ic_WcBG1Tp-109" value="topic = subscriptions" style="edgeLabel;html=1;align=center;verticalAlign=middle;resizable=0;points=[];" vertex="1" connectable="0" parent="73gjUbMc13ic_WcBG1Tp-97">
          <mxGeometry x="0.2881" y="-1" relative="1" as="geometry">
            <mxPoint as="offset" />
          </mxGeometry>
        </mxCell>
        <mxCell id="73gjUbMc13ic_WcBG1Tp-112" style="edgeStyle=none;rounded=1;orthogonalLoop=1;jettySize=auto;html=1;startArrow=none;startFill=0;exitX=0;exitY=0.5;exitDx=0;exitDy=0;" edge="1" parent="1" source="73gjUbMc13ic_WcBG1Tp-119" target="73gjUbMc13ic_WcBG1Tp-86">
          <mxGeometry relative="1" as="geometry" />
        </mxCell>
        <mxCell id="73gjUbMc13ic_WcBG1Tp-111" value="edgeAppN" style="sketch=0;outlineConnect=0;fontColor=#232F3E;gradientColor=none;fillColor=#3F8624;strokeColor=none;dashed=0;verticalLabelPosition=bottom;verticalAlign=top;align=center;html=1;fontSize=12;fontStyle=0;aspect=fixed;pointerEvents=1;shape=mxgraph.aws4.topic_2;" vertex="1" parent="1">
          <mxGeometry x="570" y="40" width="53" height="78" as="geometry" />
        </mxCell>
        <mxCell id="73gjUbMc13ic_WcBG1Tp-98" style="edgeStyle=none;rounded=1;orthogonalLoop=1;jettySize=auto;html=1;entryX=0.838;entryY=1.001;entryDx=0;entryDy=0;entryPerimeter=0;startArrow=block;startFill=1;" edge="1" parent="1" source="73gjUbMc13ic_WcBG1Tp-93" target="73gjUbMc13ic_WcBG1Tp-86">
          <mxGeometry relative="1" as="geometry" />
        </mxCell>
        <mxCell id="73gjUbMc13ic_WcBG1Tp-108" value="topic = events" style="edgeLabel;html=1;align=center;verticalAlign=middle;resizable=0;points=[];" vertex="1" connectable="0" parent="73gjUbMc13ic_WcBG1Tp-98">
          <mxGeometry x="0.4164" y="-2" relative="1" as="geometry">
            <mxPoint x="79" y="16" as="offset" />
          </mxGeometry>
        </mxCell>
        <mxCell id="73gjUbMc13ic_WcBG1Tp-120" value="Requirements:&lt;br&gt;&lt;ul&gt;&lt;li&gt;changing position of object must be less than e2e latency of given class&lt;/li&gt;&lt;li&gt;Latency class 1 e2e: 0.1s&lt;/li&gt;&lt;li&gt;class 2:&lt;/li&gt;&lt;ul&gt;&lt;li&gt;e2e latency : 1s&lt;/li&gt;&lt;li&gt;20 tps per producer&lt;/li&gt;&lt;li&gt;10 kB message size (max? average?)&lt;/li&gt;&lt;li&gt;up to 1000 subscribers for single producer&lt;/li&gt;&lt;/ul&gt;&lt;li&gt;class 3:&lt;/li&gt;&lt;ul&gt;&lt;li&gt;e2e latency : 5 minutes&lt;/li&gt;&lt;li&gt;1 tpm per producer&lt;/li&gt;&lt;li&gt;100 kB message size (max? average?)&lt;/li&gt;&lt;li&gt;up to 10M producers&amp;nbsp;&lt;/li&gt;&lt;li&gt;how many subscribers per producer?&lt;/li&gt;&lt;/ul&gt;&lt;/ul&gt;&lt;div&gt;&lt;div class=&quot;DivStreamEntry DivStreamPost&quot; style=&quot;overflow: hidden ; margin-bottom: 0px ; padding: 3px ; background-color: rgb(245 , 245 , 247) ; border-radius: 5px ; color: rgb(22 , 35 , 48) ; font-family: &amp;#34;source sans prosf&amp;#34; , &amp;#34;arial&amp;#34; , &amp;#34;tahoma&amp;#34; , &amp;#34;verdana&amp;#34; ; font-size: 16px&quot;&gt;&lt;div class=&quot;DivStreamCommentText&quot;&gt;&lt;br&gt;&lt;/div&gt;&lt;div class=&quot;clearfloat&quot; style=&quot;clear: both&quot;&gt;&lt;/div&gt;&lt;/div&gt;&lt;div class=&quot;clearfloat&quot; style=&quot;clear: both ; color: rgb(22 , 35 , 48) ; font-family: &amp;#34;source sans prosf&amp;#34; , &amp;#34;arial&amp;#34; , &amp;#34;tahoma&amp;#34; , &amp;#34;verdana&amp;#34; ; font-size: 16px ; background-color: rgb(255 , 255 , 255)&quot;&gt;&lt;/div&gt;&lt;div class=&quot;DivStreamEntry DivStreamPost&quot; style=&quot;overflow: hidden ; margin-bottom: 0px ; padding: 3px ; color: rgb(22 , 35 , 48) ; font-family: &amp;#34;source sans prosf&amp;#34; , &amp;#34;arial&amp;#34; , &amp;#34;tahoma&amp;#34; , &amp;#34;verdana&amp;#34; ; font-size: 16px ; background-color: rgb(255 , 255 , 255)&quot;&gt;&lt;div class=&quot;DivPostSettingWrapper&quot; style=&quot;float: right ; margin: -1px 3px&quot;&gt;&lt;div class=&quot;DivPostSettingAbsolute&quot; style=&quot;border-radius: 4px ; display: inline-block ; margin: 0px 6px&quot;&gt;&lt;span class=&quot;imgPostItem imgCommentPost&quot; title=&quot;Reply&quot; style=&quot;visibility: hidden ; cursor: pointer ; height: 28px ; width: 36px ; float: left ; display: block ; border: 0.9px solid rgb(204 , 204 , 204) ; margin-left: -1px ; border-top-left-radius: 4px ; border-bottom-left-radius: 4px&quot;&gt;&lt;/span&gt;&lt;span class=&quot;imgPostItem imgCommentPost &quot; title=&quot;Add Reaction&quot; style=&quot;visibility: hidden ; cursor: pointer ; height: 28px ; width: 36px ; float: left ; display: block ; border: 0.9px solid rgb(204 , 204 , 204) ; margin-left: -1px&quot;&gt;&lt;/span&gt;&lt;span class=&quot;imgPostSetting imgPostItem&quot; style=&quot;visibility: hidden ; cursor: pointer ; height: 28px ; width: 36px ; float: left ; display: block ; border: 0.9px solid rgb(204 , 204 , 204) ; margin-left: -1px ; border-top-right-radius: 4px ; border-bottom-right-radius: 4px&quot;&gt;&lt;div class=&quot;Rotate90&quot;&gt;&lt;/div&gt;&lt;/span&gt;&lt;/div&gt;&lt;br&gt;&lt;/div&gt;&lt;div class=&quot;DivStreamCommentText&quot;&gt;&lt;span&gt;&lt;span class=&quot;spanContent&quot; style=&quot;line-height: 20px&quot;&gt;12. The number of active Publishers and Subscribers&lt;br&gt;12.1. Use class 1&amp;nbsp;&lt;/span&gt;&lt;/span&gt;&lt;/div&gt;&lt;div class=&quot;DivStreamCommentText&quot;&gt;&lt;span&gt;&lt;span class=&quot;spanContent&quot; style=&quot;line-height: 20px&quot;&gt;20 Publishers publishes at the rate of 100 messages/s to different&lt;br&gt;channels. They are also the Subscribers, so the single message is to be&lt;br&gt;delivered to 19 clients.&amp;nbsp;&lt;/span&gt;&lt;/span&gt;&lt;/div&gt;&lt;div class=&quot;DivStreamCommentText&quot;&gt;&lt;span&gt;&lt;span class=&quot;spanContent&quot; style=&quot;line-height: 20px&quot;&gt;12.2. Use class 2&lt;br&gt;Similarly, 1000 clients (acting as Publishers and Subscribers at the&lt;br&gt;same time) publishes at 20 messages/s.&amp;nbsp;&lt;/span&gt;&lt;/span&gt;&lt;/div&gt;&lt;div class=&quot;DivStreamCommentText&quot;&gt;&lt;span&gt;&lt;span class=&quot;spanContent&quot; style=&quot;line-height: 20px&quot;&gt;12.3. Use class 3&lt;br&gt;- The implementation will require paging&lt;br&gt;- It is not realistic to run 10M clients in a test set-up&amp;nbsp;&lt;/span&gt;&lt;/span&gt;&lt;/div&gt;&lt;div class=&quot;DivStreamCommentText&quot;&gt;&lt;span&gt;&lt;span class=&quot;spanContent&quot; style=&quot;line-height: 20px&quot;&gt;&amp;nbsp;13. The assumptions as for the acceptance tests&lt;br&gt;- The goals of the test are:&lt;br&gt;-- Proof the scalability of the system (scaling development trend)&lt;br&gt;-- Identify the potential bottlenecks in operating the system at the&lt;br&gt;full scale&lt;br&gt;- The test shall be performed at the loads described above (p. 12)&lt;/span&gt;&lt;/span&gt;&lt;/div&gt;&lt;/div&gt;&lt;/div&gt;" style="shape=note;whiteSpace=wrap;html=1;backgroundOutline=1;darkOpacity=0.05;shadow=0;sketch=1;align=left;" vertex="1" parent="1">
          <mxGeometry x="820" y="-40" width="590" height="680" as="geometry" />
        </mxCell>
      </root>
    </mxGraphModel>
  </diagram>
</mxfile>
